<?xml version="1.0" standalone="no"?><!DOCTYPE svg PUBLIC "-//W3C//DTD SVG 1.1//EN" "http://www.w3.org/Graphics/SVG/1.1/DTD/svg11.dtd"><svg t="1560768095228" class="icon" style="" viewBox="0 0 1145 1024" version="1.1" xmlns="http://www.w3.org/2000/svg" p-id="9651" xmlns:xlink="http://www.w3.org/1999/xlink" width="279.541015625" height="250"><defs><style type="text/css"></style></defs><path d="M642.998857 1007.433143a453.254095 453.254095 0 0 0 81.103238-70.4A306.224762 306.224762 0 0 0 755.809524 938.666667c168.313905 0 304.761905-136.448 304.761905-304.761905S924.123429 329.142857 755.809524 329.142857 451.047619 465.590857 451.047619 633.904762c0 6.290286 0.195048 12.53181 0.560762 18.712381l-85.845333-11.934476C365.738667 638.427429 365.714286 636.17219 365.714286 633.904762 365.714286 418.462476 540.367238 243.809524 755.809524 243.809524s390.095238 174.652952 390.095238 390.095238-174.652952 390.095238-390.095238 390.095238c-39.228952 0-77.104762-5.790476-112.810667-16.566857z" fill="#ffffff" p-id="9652"></path><path d="M402.285714 633.904762m-97.523809 0a97.52381 97.52381 0 1 0 195.047619 0 97.52381 97.52381 0 1 0-195.047619 0Z" fill="#ffffff" p-id="9653"></path><path d="M501.906286 260.071619a453.778286 453.778286 0 0 0-80.920381 70.619429A307.931429 307.931429 0 0 0 390.095238 329.142857c-168.313905 0-304.761905 136.448-304.761905 304.761905S221.781333 938.666667 390.095238 938.666667 694.857143 802.218667 694.857143 633.904762c0-6.290286-0.195048-12.53181-0.560762-18.712381l85.845333 11.934476C780.166095 629.382095 780.190476 631.637333 780.190476 633.904762 780.190476 849.347048 605.537524 1024 390.095238 1024s-390.095238-174.652952-390.095238-390.095238 174.652952-390.095238 390.095238-390.095238c38.863238 0 76.385524 5.680762 111.811048 16.262095z" fill="#ffffff" p-id="9654"></path><path d="M743.619048 633.904762m97.523809 0a97.52381 97.52381 0 1 0-195.047619 0 97.52381 97.52381 0 1 0 195.047619 0Z" fill="#ffffff" p-id="9655"></path><path d="M921.209905 214.150095a448.292571 448.292571 0 0 0-122.989715-29.318095C742.485333 123.696762 662.198857 85.333333 572.952381 85.333333s-169.532952 38.363429-225.26781 99.486477a448.292571 448.292571 0 0 0-122.989714 29.318095C289.01181 87.100952 420.815238 0 572.952381 0s283.940571 87.100952 348.257524 214.150095z" fill="#ffffff" p-id="9656"></path></svg>